# xmcd CD database file
#
# Track frame offsets:
#	183
#	17595
#	35500
#	54283
#	73800
#	92528
#	109658
#	121675
#	136553
#	155053
#	167575
#
# Disc length: 2463 seconds
#
# Revision: 1
# Processed by: cddbd v1.5.2PL0 Copyright (c) Steve Scherf et al.
# Submitted via: CDex 1.50
#
DISCID=80099d0b
DTITLE=Josef Zoch - Country vánoce
DYEAR=1992
DGENRE=Country
TTITLE0=KVULI NÁM SE NARODIL PÁN
TTITLE1=V HLAVE STRÍBRO ZVONU
TTITLE2=PRÁNÍ K VÁNOCUM
TTITLE3=ZPÁTKY TAM DOMU
TTITLE4=JE VÁNOC CAS
TTITLE5=KDY SE VRÁTÍS TÁTO
TTITLE6=JÁ DÁRKY DÁVÁM
TTITLE7=JSEM ZASE KLUK
TTITLE8=POPLUJEM SPOLU DO MORÍ
TTITLE9=BRASI VÁNOCNÍ
TTITLE10=KVULI NÁM SE NARODIL PÁN (orchestrální verze)
EXTD=YEAR: 1992
EXTT0=
EXTT1=
EXTT2=
EXTT3=
EXTT4=
EXTT5=
EXTT6=
EXTT7=
EXTT8=
EXTT9=
EXTT10=
PLAYORDER=
